<?xml version="1.0" encoding="utf-8"?>
<!-- Generator: Adobe Illustrator 16.0.4, SVG Export Plug-In . SVG Version: 6.00 Build 0)  -->
<!DOCTYPE svg PUBLIC "-//W3C//DTD SVG 1.1//EN" "http://www.w3.org/Graphics/SVG/1.1/DTD/svg11.dtd">
<svg version="1.1" id="Capa_1" xmlns="http://www.w3.org/2000/svg" xmlns:xlink="http://www.w3.org/1999/xlink" x="0px" y="0px"
	 width="305px" height="305px" viewBox="-436.932 311.337 305 305" enable-background="new -436.932 311.337 305 305"
	 xml:space="preserve">
<path fill="#093C4F" d="M-214.272,417.189c0,7.922-1.318,15.532-3.74,22.63c-1.096,3.213-4.565,4.258-7.433,2.441l-7.435-4.692
	c-2.875-1.819-7.75-2.256-10.905-0.991l-6.379,2.568c-3.153,1.258-7.368,0.096-9.418-2.613l-22.423-35.76
	c-2.051-2.707-5.198-2.587-7.035,0.269l-19.805,36.962c-1.832,2.851-5.265,3.224-7.668,0.818l-0.966-0.962
	c-2.397-2.396-5.907-2.078-7.839,0.713l-4.173,6.025c-1.933,2.786-6.255,5.052-9.647,5.052h-1.322c-3.399,0-7.446-2.431-8.752-5.559
	c-3.452-8.279-5.379-17.364-5.379-26.898c0-38.748,31.407-70.159,70.16-70.159C-245.68,347.033-214.267,378.444-214.272,417.189z
	 M-284.432,313.841c-59.009,0-106.842,47.833-106.842,106.838c0,49.976,76.592,148.546,100.077,187.817
	c4.253,7.112,9.271,7.122,13.514,0.025c23.469-39.241,100.094-137.856,100.094-187.843
	C-177.59,361.674-225.421,313.841-284.432,313.841z M-284.432,503.35c-45.585,0-82.671-37.087-82.671-82.676
	c-0.005-45.562,37.082-82.658,82.671-82.658c45.595,0,82.672,37.097,82.672,82.658C-201.76,466.263-238.837,503.35-284.432,503.35z"
	/>
</svg>
