<?xml version="1.0" encoding="utf-8"?>
<!-- Generator: Adobe Illustrator 16.0.4, SVG Export Plug-In . SVG Version: 6.00 Build 0)  -->
<!DOCTYPE svg PUBLIC "-//W3C//DTD SVG 1.1//EN" "http://www.w3.org/Graphics/SVG/1.1/DTD/svg11.dtd">
<svg version="1.1" id="Capa_1" xmlns="http://www.w3.org/2000/svg" xmlns:xlink="http://www.w3.org/1999/xlink" x="0px" y="0px"
	 width="305px" height="305px" viewBox="0 0 305 305" enable-background="new 0 0 305 305" xml:space="preserve">
<path fill="#093C4F" d="M152.499,2.396c-82.78,0-150.121,67.356-150.112,150.086c0,82.781,67.34,150.121,150.112,150.121
	c82.791,0,150.114-67.34,150.114-150.121C302.613,69.752,235.289,2.396,152.499,2.396z M259.605,191.679l-13.5-8.521
	c-5.221-3.304-14.073-4.098-19.801-1.801l-11.582,4.664c-5.727,2.283-13.377,0.173-17.103-4.746l-40.716-64.932
	c-3.725-4.915-9.439-4.696-12.774,0.489l-35.96,67.113c-3.325,5.177-9.56,5.854-13.924,1.485l-1.754-1.744
	c-4.352-4.351-10.725-3.774-14.233,1.294l-7.578,10.938c-3.509,5.061-11.358,9.175-17.516,9.175h-2.402
	c-6.171,0-13.521-4.413-15.891-10.095c-6.269-15.034-9.767-31.528-9.767-48.84c0-70.358,57.028-127.394,127.394-127.394
	c70.364,0,127.404,57.035,127.394,127.388c0,14.385-2.393,28.201-6.791,41.092C271.11,193.079,264.812,194.977,259.605,191.679z
	 M190.395,118.973l-5.324-5.325c17.396-17.401,17.392-45.705-0.008-63.098l5.332-5.322
	C210.727,65.556,210.727,98.65,190.395,118.973z M175.857,104.438l5.322,5.339c15.256-15.26,15.256-40.089,0-55.34l-5.322,5.322
	C188.174,72.069,188.174,92.128,175.857,104.438z M171.686,100.267c10.018-10.019,10.018-26.325-0.008-36.333l-5.324,5.322
	c7.093,7.091,7.093,18.612,0,25.683L171.686,100.267z M116.643,50.549l-5.331-5.322c-20.331,20.329-20.331,53.423,0,73.746
	l5.323-5.325C99.238,96.251,99.242,67.954,116.643,50.549z M120.516,109.777l5.325-5.339c-12.314-12.31-12.314-32.353,0-44.679
	l-5.325-5.331C105.255,69.681,105.255,94.518,120.516,109.777z M130.017,100.267l5.326-5.328
	c-7.082-7.088-7.082-18.608,0.002-25.683l-5.325-5.322C120.001,73.96,120.001,90.256,130.017,100.267z M158.672,141.251
	l-7.122-51.443c3.315-0.427,5.887-3.229,5.887-6.663c0-3.726-3.021-6.742-6.746-6.742c-3.728,0-6.748,3.021-6.748,6.742
	c0,3.435,2.572,6.236,5.886,6.663l-7.117,51.443H158.672z"/>
</svg>
