<?xml version="1.0" encoding="utf-8"?>
<!-- Generator: Adobe Illustrator 16.0.4, SVG Export Plug-In . SVG Version: 6.00 Build 0)  -->
<!DOCTYPE svg PUBLIC "-//W3C//DTD SVG 1.1//EN" "http://www.w3.org/Graphics/SVG/1.1/DTD/svg11.dtd">
<svg version="1.1" id="Capa_1" xmlns="http://www.w3.org/2000/svg" xmlns:xlink="http://www.w3.org/1999/xlink" x="0px" y="0px"
	 width="305px" height="305px" viewBox="0 0 305 305" enable-background="new 0 0 305 305" xml:space="preserve">
<path fill="#093C4F" d="M61.204,76.833c9.167,0,16.595,14.226,16.595,31.773c0,17.553-7.428,31.78-16.595,31.78
	s-16.596-14.227-16.596-31.78C44.607,91.059,52.036,76.833,61.204,76.833z M302.48,89.425v203.271c0,3.143-1.528,6.103-4.088,7.934
	c-1.68,1.214-3.7,1.845-5.729,1.845c-1.043,0-2.1-0.131-3.115-0.474l-89.447-29.976h-93.232c-1.378,0-2.744-0.327-4.003-0.893
	L8.321,228.73c-3.517-1.568-5.801-5.092-5.801-8.944V12.303c0-3.295,1.68-6.379,4.443-8.177c2.762-1.818,6.247-2.099,9.272-0.78
	l92.669,40.448h92.595c1.216,0,2.435,0.224,3.57,0.677l91.179,35.854C299.994,81.794,302.469,85.389,302.48,89.425z
	 M113.489,252.398h81.644v-19.62h-81.644V252.398z M195.141,185.487V63.413h-81.646V196.28c3.151,1.011,7.062-0.177,9.168-3.235
	l30.822-44.694c3.229-4.672,10.072-4.809,13.49-0.275L195.141,185.487z M22.146,213.473l78.251,35.074v-19.312l-60.231-26.786
	c-3.006-1.326-4.942-4.318-4.942-7.612v-12.094c0-8.301,10.749-11.483,15.276-4.535c3.196,4.902,7.225,5.138,11.038,3.13
	c0,0,10.709-5.648,14.279-7.539c2.907-1.542,6.463-1.214,9.048,0.813c3.886,3.051,15.54,12.179,15.54,12.179V61.424L22.147,27.249
	v186.224H22.146z M282.848,279.092V96.072L208.23,66.779V202.79l4.337,5.754c3.243,4.312,9.647,4.449,13.071,0.282l13.281-16.137
	c4.057-4.926,11.932-3.647,14.209,2.324l18.641,48.787c2.565,6.74-4.055,13.348-10.781,10.749l-52.771-20.342v19.845l74.616,25.039
	H282.848L282.848,279.092z"/>
</svg>
