<?xml version="1.0" encoding="utf-8"?>
<!-- Generator: Adobe Illustrator 16.0.4, SVG Export Plug-In . SVG Version: 6.00 Build 0)  -->
<!DOCTYPE svg PUBLIC "-//W3C//DTD SVG 1.1//EN" "http://www.w3.org/Graphics/SVG/1.1/DTD/svg11.dtd">
<svg version="1.1" id="Capa_1" xmlns="http://www.w3.org/2000/svg" xmlns:xlink="http://www.w3.org/1999/xlink" x="0px" y="0px"
	 width="305px" height="305px" viewBox="-436.932 -377.18 305 305" enable-background="new -436.932 -377.18 305 305"
	 xml:space="preserve">
<path fill="#093C4F" d="M-375.747-300.372c9.167,0,16.595,14.226,16.595,31.773c0,17.553-7.428,31.78-16.595,31.78
	c-9.167,0-16.596-14.227-16.596-31.78C-392.344-286.146-384.915-300.372-375.747-300.372z M-134.47-287.78v203.271
	c0,3.143-1.529,6.103-4.088,7.934c-1.68,1.214-3.701,1.844-5.729,1.844c-1.043,0-2.099-0.131-3.116-0.473l-89.447-29.975h-93.232
	c-1.378,0-2.744-0.328-4.003-0.893l-94.545-42.403c-3.517-1.568-5.801-5.091-5.801-8.944v-207.483c0-3.295,1.68-6.379,4.443-8.177
	c2.762-1.818,6.247-2.099,9.272-0.78l92.669,40.448h92.595c1.215,0,2.435,0.224,3.57,0.677l91.179,35.854
	C-136.957-295.411-134.483-291.816-134.47-287.78z M-323.462-124.806h81.644v-19.621h-81.644V-124.806z M-241.811-191.718v-122.074
	h-81.646v132.867c3.151,1.011,7.062-0.177,9.168-3.235l30.822-44.694c3.229-4.672,10.072-4.809,13.491-0.275L-241.811-191.718z
	 M-414.805-163.732l78.251,35.074v-19.312l-60.231-26.786c-3.006-1.326-4.942-4.318-4.942-7.612v-12.094
	c0-8.301,10.749-11.484,15.276-4.535c3.196,4.902,7.225,5.138,11.038,3.13c0,0,10.709-5.649,14.279-7.539
	c2.907-1.542,6.463-1.214,9.048,0.813c3.886,3.051,15.54,12.179,15.54,12.179v-125.367l-78.258-34.175V-163.732z M-154.103-98.113
	v-183.02l-74.618-29.293v136.011l4.337,5.754c3.243,4.312,9.647,4.449,13.072,0.282l13.281-16.136
	c4.056-4.927,11.931-3.648,14.208,2.323l18.642,48.788c2.565,6.74-4.056,13.348-10.782,10.749l-52.771-20.342v19.845l74.616,25.039
	H-154.103z"/>
</svg>
