<?xml version="1.0" encoding="utf-8"?>
<!-- Generator: Adobe Illustrator 16.0.4, SVG Export Plug-In . SVG Version: 6.00 Build 0)  -->
<!DOCTYPE svg PUBLIC "-//W3C//DTD SVG 1.1//EN" "http://www.w3.org/Graphics/SVG/1.1/DTD/svg11.dtd">
<svg version="1.1" id="Capa_1" xmlns="http://www.w3.org/2000/svg" xmlns:xlink="http://www.w3.org/1999/xlink" x="0px" y="0px"
	 width="305px" height="305px" viewBox="-436.932 -35.146 305 305" enable-background="new -436.932 -35.146 305 305"
	 xml:space="preserve">
<path fill="#093C4F" d="M-284.452-32.749c-82.78,0-150.121,67.356-150.112,150.086c0,82.781,67.34,150.121,150.112,150.121
	c82.791,0,150.114-67.34,150.114-150.121C-134.338,34.607-201.662-32.749-284.452-32.749z M-177.346,156.533l-13.5-8.521
	c-5.221-3.303-14.073-4.097-19.8-1.8l-11.583,4.664c-5.726,2.283-13.377,0.173-17.102-4.746l-40.716-64.932
	c-3.725-4.915-9.439-4.696-12.774,0.489l-35.96,67.113c-3.325,5.177-9.56,5.854-13.924,1.485l-1.754-1.744
	c-4.352-4.351-10.725-3.775-14.233,1.294l-7.578,10.939c-3.509,5.06-11.358,9.174-17.516,9.174h-2.402
	c-6.171,0-13.521-4.413-15.891-10.094c-6.269-15.034-9.767-31.529-9.767-48.841c0-70.358,57.028-127.394,127.394-127.394
	c70.364,0,127.404,57.035,127.394,127.388c0,14.384-2.393,28.201-6.791,41.091C-165.841,157.934-172.139,159.831-177.346,156.533z
	 M-246.557,83.827l-5.324-5.325c17.396-17.401,17.392-45.705-0.007-63.098l5.331-5.322
	C-226.224,30.41-226.224,63.505-246.557,83.827z M-261.094,69.293l5.323,5.339c15.255-15.26,15.255-40.089,0-55.34l-5.323,5.322
	C-248.777,36.924-248.777,56.983-261.094,69.293z M-265.265,65.121c10.017-10.019,10.017-26.325-0.008-36.333l-5.324,5.322
	c7.092,7.091,7.092,18.612,0,25.683L-265.265,65.121z M-320.308,15.404l-5.331-5.322c-20.331,20.329-20.331,53.423,0,73.746
	l5.323-5.325C-337.713,61.106-337.709,32.808-320.308,15.404z M-316.435,74.632l5.325-5.339c-12.314-12.31-12.314-32.353,0-44.679
	l-5.325-5.331C-331.696,34.535-331.696,59.372-316.435,74.632z M-306.934,65.121l5.326-5.328
	c-7.082-7.088-7.082-18.608,0.002-25.683l-5.325-5.322C-316.95,38.815-316.95,55.111-306.934,65.121z M-278.28,106.106
	l-7.121-51.443c3.315-0.427,5.888-3.229,5.888-6.663c0-3.726-3.022-6.742-6.747-6.742c-3.728,0-6.748,3.021-6.748,6.742
	c0,3.435,2.572,6.236,5.886,6.663l-7.117,51.443H-278.28z"/>
</svg>
