<?xml version="1.0" encoding="iso-8859-1"?>
<!-- Generator: Adobe Illustrator 16.0.0, SVG Export Plug-In . SVG Version: 6.00 Build 0)  -->
<!DOCTYPE svg PUBLIC "-//W3C//DTD SVG 1.1//EN" "http://www.w3.org/Graphics/SVG/1.1/DTD/svg11.dtd">
<svg version="1.1" id="Capa_1" xmlns="http://www.w3.org/2000/svg" xmlns:xlink="http://www.w3.org/1999/xlink" x="0px" y="0px"
	 width="44.64px" height="44.64px" viewBox="0 0 44.64 44.64" style="enable-background:new 0 0 44.64 44.64;" xml:space="preserve"
	>
<g>
	<g>
		<ellipse cx="8.733" cy="15.788" rx="2.47" ry="4.729"/>
		<path d="M43.713,11.579l-13.57-5.336c-0.169-0.067-0.35-0.101-0.531-0.101H15.832L2.041,0.123c-0.45-0.196-0.969-0.154-1.38,0.116
			C0.25,0.507,0,0.966,0,1.456v30.878c0,0.573,0.34,1.097,0.863,1.331l14.07,6.31c0.188,0.084,0.391,0.133,0.596,0.133h13.875
			l13.312,4.461c0.151,0.051,0.308,0.07,0.463,0.07c0.302,0,0.603-0.093,0.853-0.274c0.381-0.272,0.608-0.713,0.608-1.181V12.933
			C44.638,12.333,44.27,11.798,43.713,11.579z M16.514,34.267h12.151v2.92H16.514V34.267z M24.474,21.662
			c-0.508-0.675-1.527-0.654-2.007,0.041l-4.587,6.651c-0.314,0.455-0.896,0.632-1.365,0.482V9.062h12.151v18.167L24.474,21.662z
			 M2.921,3.68l11.646,5.086v18.658c0,0-1.734-1.359-2.312-1.813c-0.385-0.302-0.914-0.35-1.347-0.121
			c-0.531,0.281-2.125,1.122-2.125,1.122c-0.567,0.299-1.167,0.264-1.643-0.466c-0.673-1.034-2.273-0.56-2.273,0.675v1.8
			c0,0.49,0.288,0.935,0.735,1.133l8.964,3.986v2.874l-11.645-5.22V3.68z M41.717,41.16l-11.105-3.727V34.48l7.854,3.028
			c1.001,0.386,1.986-0.597,1.604-1.6l-2.774-7.261c-0.339-0.888-1.511-1.079-2.115-0.345l-1.976,2.401
			c-0.51,0.62-1.463,0.6-1.945-0.042l-0.646-0.857V9.563l11.105,4.36V41.16z"/>
	</g>
</g>
<g>
</g>
<g>
</g>
<g>
</g>
<g>
</g>
<g>
</g>
<g>
</g>
<g>
</g>
<g>
</g>
<g>
</g>
<g>
</g>
<g>
</g>
<g>
</g>
<g>
</g>
<g>
</g>
<g>
</g>
</svg>
