<?xml version="1.0" encoding="iso-8859-1"?>
<!-- Generator: Adobe Illustrator 18.1.1, SVG Export Plug-In . SVG Version: 6.00 Build 0)  -->
<svg version="1.1" id="Capa_1" xmlns="http://www.w3.org/2000/svg" xmlns:xlink="http://www.w3.org/1999/xlink" x="0px" y="0px"
	 viewBox="0 0 36.747 36.747" style="enable-background:new 0 0 36.747 36.747;" xml:space="preserve">
<g>
	<path style="fill:#010002;" d="M18.374,4.937C8.226,4.937,0,13.163,0,23.311c0,2.496,0.504,4.875,1.409,7.043
		C1.75,31.174,2.811,31.81,3.7,31.81h0.347c0.889,0,2.02-0.593,2.526-1.323l1.093-1.578c0.506-0.73,1.426-0.814,2.054-0.186
		l0.252,0.252c0.629,0.63,1.528,0.533,2.008-0.215l5.187-9.679c0.481-0.748,1.305-0.779,1.842-0.071l5.872,9.365
		c0.537,0.709,1.641,1.014,2.466,0.684l1.672-0.672c0.825-0.332,2.103-0.217,2.854,0.259l1.947,1.229
		c0.752,0.475,1.66,0.202,1.947-0.639c0.635-1.859,0.98-3.852,0.98-5.926C36.748,13.163,28.522,4.937,18.374,4.937z"/>
</g>
<g>
</g>
<g>
</g>
<g>
</g>
<g>
</g>
<g>
</g>
<g>
</g>
<g>
</g>
<g>
</g>
<g>
</g>
<g>
</g>
<g>
</g>
<g>
</g>
<g>
</g>
<g>
</g>
<g>
</g>
</svg>
